# xmcd
#
# Track frame offsets:
#	150
#	11710
#	28162
#	39280
#	79807
#	95870
#	119832
#	144117
#	157632
#	174847
#	188052
#	199637
#	212902
#	225565
#	253550
#	264720
#
# Disc length: 3678 seconds
#
# Revision: 0
# Processed by: cddbd v1.5.1PL2 Copyright (c) Steve Scherf et al.
# Submitted via: dBpowerAMP V4.0
#
DISCID=d10e5c10
DTITLE=Various Artist - 70s Super Party CD1
DYEAR=1900
DGENRE=Oldies
TTITLE0=Eddison Lighthouse - Love Grows Where My Rosemary Goes
TTITLE1=Jimmy James - Now Is The Time
TTITLE2=Tammy Wynette - D.I.V.O.R.C.E
TTITLE3=Tavares - Heaven Must Be Missing An Angel
TTITLE4=Paper Lace - Don't Be A Hero
TTITLE5=Chuck Berry - My Ding-A-Ling
TTITLE6=Marvin Gaye - Let's Get It On
TTITLE7=The Fortunes - Freedom Come Freedom Go
TTITLE8=Kool and The Gang - Ladies Night
TTITLE9=Chicory Tip - Some My Father
TTITLE10=Christie - Yellow River
TTITLE11=Three Degrees - When Will I See You Again
TTITLE12=First Choice - Armed And Extremely Dangerous
TTITLE13=Rose Royce - Wishing On A Star
TTITLE14=Bellamy Brothers - Let Your Love Flow
TTITLE15=Tammy Wynette - Stand By Your Man
EXTD=
EXTT0=
EXTT1=
EXTT2=
EXTT3=
EXTT4=
EXTT5=
EXTT6=
EXTT7=
EXTT8=
EXTT9=
EXTT10=
EXTT11=
EXTT12=
EXTT13=
EXTT14=
EXTT15=
PLAYORDER=
